<?xml version="1.0" encoding="utf-8"?>
<!-- Generator: Adobe Illustrator 19.2.0, SVG Export Plug-In . SVG Version: 6.00 Build 0)  -->
<svg version="1.1" id="bb3ce053-1ca5-43bd-8e3f-64be2b3a47e9"
	 xmlns="http://www.w3.org/2000/svg" xmlns:xlink="http://www.w3.org/1999/xlink" x="0px" y="0px" viewBox="0 0 48 48"
	 style="enable-background:new 0 0 48 48;" xml:space="preserve">
<style type="text/css">
	.st0{fill:#FFFFFF;}
</style>
<title>sidebar-trigger</title>
<path id="Combined-Shape" class="st0" d="M18.8,26.4c-0.6,0.6-1.5,1-2.4,1c-1.9,0-3.4-1.5-3.4-3.4s1.5-3.4,3.4-3.4
	c0.9,0,1.8,0.4,2.4,1l9.5-4.7c0-0.2-0.1-0.4-0.1-0.6c0-1.9,1.5-3.4,3.4-3.4c1.9,0,3.4,1.5,3.4,3.4s-1.5,3.4-3.4,3.4
	c-0.9,0-1.8-0.4-2.4-1l-9.5,4.7c0,0.2,0.1,0.4,0.1,0.6c0,0.2,0,0.4-0.1,0.6l9.5,4.7c0.6-0.6,1.5-1,2.4-1c1.9,0,3.4,1.5,3.4,3.4
	c0,1.9-1.5,3.4-3.4,3.4c-1.9,0-3.4-1.5-3.4-3.4c0-0.2,0-0.4,0.1-0.6L18.8,26.4z"/>
</svg>
