<?xml version="1.0" encoding="UTF-8"?>
<svg width="58px" height="96px" viewBox="0 0 58 96" version="1.1" xmlns="http://www.w3.org/2000/svg" xmlns:xlink="http://www.w3.org/1999/xlink">
    <!-- Generator: sketchtool 50.2 (55047) - http://www.bohemiancoding.com/sketch -->
    <title>12637021-51F5-4AD5-9A44-FD371174DDE9</title>
    <desc>Created with sketchtool.</desc>
    <defs>
        <polygon id="path-1" points="0.130525301 0.19845498 0.630525301 0.19845498 0.630525301 0.355293244 0.130525301 0.355293244"></polygon>
        <polygon id="path-3" points="0.0001 0.279180723 0.5001 0.279180723 0.5001 0.296430723 0.0001 0.296430723"></polygon>
        <polygon id="path-5" points="0.106496386 0.217561446 0.606496386 0.217561446 0.606496386 0.341361446 0.106496386 0.341361446"></polygon>
        <polygon id="path-7" points="0.0184192771 0.230544578 0.518419277 0.230544578 0.518419277 0.331894578 0.0184192771 0.331894578"></polygon>
        <polygon id="path-9" points="5.78313253e-05 0.254168675 57.8313253 0.254168675 57.8313253 95.4213976 5.78313253e-05 95.4213976"></polygon>
    </defs>
    <g id="*HOME-PUBBLICA-+-LOGO-+-HEADERR-+-FOOTER--{-no-symbols-}" stroke="none" stroke-width="1" fill="none" fill-rule="evenodd">
        <g id="HOME-PUBBLICA-BRANDIZZATA" transform="translate(-142.000000, -62.000000)">
            <g id="Group-7">
                <g id="Page-1" transform="translate(142.000000, 62.000000)">
                    <g id="Group-3" transform="translate(28.915663, 95.167518)">
                        <mask id="mask-2" fill="white">
                            <use xlink:href="#path-1"></use>
                        </mask>
                        <g id="Clip-2"></g>
                        <path d="M0.130525301,0.231493244 C0.215525301,0.184493244 0.204025301,0.190493244 0.130525301,0.231493244" id="Fill-1" fill="#FEFEFE" mask="url(#mask-2)"></path>
                    </g>
                    <g id="Group-6" transform="translate(28.915663, 95.167518)">
                        <mask id="mask-4" fill="white">
                            <use xlink:href="#path-3"></use>
                        </mask>
                        <g id="Clip-5"></g>
                        <path d="M0.0001,0.296180723 C0.0121,0.289180723 0.0211,0.285180723 0.0316,0.279180723 C0.0131,0.288680723 0.0001,0.296180723 0.0001,0.296180723" id="Fill-4" fill="#FEFEFE" mask="url(#mask-4)"></path>
                    </g>
                    <g id="Group-9" transform="translate(28.915663, 95.167518)">
                        <mask id="mask-6" fill="white">
                            <use xlink:href="#path-5"></use>
                        </mask>
                        <g id="Clip-8"></g>
                        <path d="M0.106496386,0.240061446 C0.121496386,0.231561446 0.134996386,0.224561446 0.147996386,0.217561446 C0.135496386,0.224561446 0.120496386,0.232061446 0.106496386,0.240061446" id="Fill-7" fill="#FEFEFE" mask="url(#mask-6)"></path>
                    </g>
                    <g id="Group-12" transform="translate(28.915663, 95.167518)">
                        <mask id="mask-8" fill="white">
                            <use xlink:href="#path-7"></use>
                        </mask>
                        <g id="Clip-11"></g>
                        <path d="M0.0184192771,0.314544578 C0.0544192771,0.294544578 0.113919277,0.262044578 0.170919277,0.230544578 C0.137919277,0.248544578 0.0919192771,0.274044578 0.0184192771,0.314544578" id="Fill-10" fill="#FEFEFE" mask="url(#mask-8)"></path>
                    </g>
                    <g id="Group-15" transform="translate(0.000000, 0.034988)">
                        <mask id="mask-10" fill="white">
                            <use xlink:href="#path-9"></use>
                        </mask>
                        <g id="Clip-14"></g>
                        <path d="M28.9157205,93.7769639 C8.03167229,81.1775422 1.41519036,58.3951807 1.41519036,44.7573976 C1.41519036,36.9059277 2.2549012,31.8708434 3.10675663,26.3728193 C6.37191325,27.0422169 8.73923855,27.397012 14.3514795,27.397012 C19.7647807,27.397012 24.1296,26.1926747 28.2552867,26.0703614 C28.4614554,26.0729639 28.6173108,26.0741205 28.7104193,26.0741205 C29.0186602,26.0741205 29.3240096,26.0729639 29.6279133,26.0712289 C33.7379855,26.2022169 38.0895036,27.397012 43.4796723,27.397012 C49.0919133,27.397012 51.4592386,27.0422169 54.7243952,26.3728193 C55.5762506,31.8708434 56.4159614,36.9059277 56.4159614,44.7573976 C56.4159614,58.3951807 49.7997687,81.1775422 28.9157205,93.7769639 Z M16.3654554,24.2342169 C16.3654554,23.5185542 26.9728771,23.4205301 28.7104193,23.4205301 C32.7716241,23.4205301 41.0556723,23.745253 41.0556723,24.2342169 C41.0556723,24.8397108 37.3215036,24.9944096 33.6385157,25.0305542 C32.0091181,24.8131084 30.4479614,24.6439518 28.9157205,24.6439518 C27.3996723,24.6439518 25.8549976,24.8099277 24.2443952,25.0239036 C20.6715759,24.9767711 16.3654554,24.8079036 16.3654554,24.2342169 Z M14.2115277,22.0612048 C14.2115277,22.0612048 26.3202506,21.034988 31.4073831,21.034988 C15.1437687,22.4180241 14.2115277,23.6587952 14.2115277,23.6587952 C14.1895518,23.6587952 14.1687325,23.6541687 14.1470458,23.6521446 C13.9937928,23.6003855 13.8607807,23.5043855 13.7621783,23.3774458 C13.7387566,23.4005783 13.7138892,23.429494 13.6890217,23.4586988 C13.5218892,23.3120964 13.4140337,23.098988 13.4140337,22.858988 C13.4140337,22.4180241 13.770853,22.0612048 14.2115277,22.0612048 Z M18.840347,19.9509398 C18.840347,20.682506 18.2469976,21.2738313 17.5154313,21.2738313 C16.7861783,21.2738313 16.1925398,20.682506 16.1925398,19.9509398 C16.1925398,19.2190843 16.7861783,18.6280482 17.5154313,18.6280482 C18.2469976,18.6280482 18.840347,19.2190843 18.840347,19.9509398 Z M22.6843952,19.5472771 C22.7104193,19.92 22.4296482,20.2426988 22.0589494,20.2687229 L19.972106,20.413012 C19.5993831,20.437012 19.2766843,20.1565301 19.2506602,19.7855422 C19.2246361,19.4128193 19.5054072,19.0921446 19.876106,19.0661205 L21.9626602,18.9218313 C22.3353831,18.8958072 22.6580819,19.1762892 22.6843952,19.5472771 Z M26.1482024,19.3977831 C26.1482024,20.1293494 25.5545639,20.7206747 24.8232867,20.7206747 C24.0934554,20.7206747 23.500106,20.1293494 23.500106,19.3977831 C23.500106,18.6662169 24.0934554,18.0748916 24.8232867,18.0748916 C25.5545639,18.0748916 26.1482024,18.6662169 26.1482024,19.3977831 Z M30.7024193,19.2546506 L28.7040578,20.4095422 L26.5313349,19.2546506 L28.7040578,18.2168675 L30.7024193,19.2546506 Z M13.5846361,17.4355663 C13.5846361,16.9946024 13.9437687,16.6377831 14.3844434,16.6377831 C14.3844434,16.6377831 14.4567325,16.6317108 14.5914795,16.6204337 C14.6536482,16.6372048 14.7120578,16.6453012 14.7606361,16.6360482 C14.7953349,16.6293976 14.8181783,16.6163855 14.8352386,16.6004819 C16.5632386,16.4576386 22.9298892,15.9455422 27.8140337,15.7197108 C27.8996241,15.7416867 27.9883952,15.7561446 28.0791904,15.7558554 L28.0797687,15.7558554 L28.080347,15.7558554 C28.1760578,15.7552771 28.2694554,15.7390843 28.3582265,15.7142169 C28.3822265,15.7072771 28.4062265,15.7009157 28.4296482,15.6925301 C29.6241542,15.6422169 30.7082024,15.6115663 31.584347,15.6115663 C15.3166843,16.9946024 14.3844434,18.2353735 14.3844434,18.2353735 C13.9437687,18.2353735 13.5846361,17.8785542 13.5846361,17.4355663 Z M10.4614554,11.8996627 C10.4134554,11.8487711 10.3550458,11.7938313 10.2934554,11.7383133 C10.4203952,11.5393735 10.2113349,11.1024578 9.8102747,10.6418313 C9.6029494,10.4035663 9.30106988,10.1563373 9.04776867,10.032 C9.37972048,9.67778313 9.61249157,9.23045783 9.70126265,8.73281928 C9.78540723,8.74091566 9.87070843,8.74554217 9.95716627,8.74554217 C10.0413108,8.74554217 10.124588,8.74091566 10.2067084,8.73310843 C10.1566843,8.76462651 10.1040578,8.79498795 10.0551904,8.82708434 C9.77702169,9.04366265 9.94126265,9.61301205 10.4322506,10.2101205 C10.7913831,10.6438554 11.3193831,10.9752289 11.6305157,10.9500723 C11.6762024,11.0183133 11.7262265,11.0871325 11.780588,11.1559518 C13.3559133,13.0739277 14.7051181,14.597494 15.8614554,15.8301687 C15.9074313,15.8773012 15.9632386,15.9261687 16.023094,15.9738795 C15.412106,16.0389398 14.9306602,16.0935904 14.6160578,16.1300241 C14.5966843,16.1100723 14.5778892,16.0898313 14.5582265,16.070747 C13.3715277,14.948241 12.0104675,13.5813976 10.4614554,11.8996627 Z M13.992347,7.00424096 C13.8917205,7.03807229 13.7882024,7.07045783 13.6893108,7.10515663 C13.2341783,7.29571084 13.1439614,7.94110843 13.6450699,8.73889157 C14.044106,9.36983133 14.6655036,9.71421687 15.0801542,9.71681928 C15.1154313,9.79720482 15.1562024,9.8793253 15.2047807,9.96260241 C16.6239614,12.2856867 17.7988048,14.0657349 18.7747084,15.4666988 C18.8299373,15.5421687 18.8996241,15.6153253 18.9776964,15.682988 C18.2574072,15.7480482 17.5894554,15.8128193 16.9943711,15.873253 C16.9602506,15.8107952 16.9177446,15.7468916 16.8659855,15.6838554 C15.7593831,14.3829398 14.4506602,12.7593253 12.903094,10.6849157 C12.8493108,10.6146506 12.7891663,10.5466988 12.7264193,10.4807711 C12.9814554,10.2780723 12.9320096,9.77840964 12.5046361,9.1659759 C12.2018892,8.72761446 11.7693108,8.40404819 11.4156723,8.28838554 C12.0127807,7.8740241 12.4259855,7.2133012 12.5060819,6.45310843 C12.9172627,6.77985542 13.431094,6.98139759 13.992347,7.00424096 Z M32.4081542,20.7206747 C31.6789012,20.7206747 31.0855518,20.1293494 31.0855518,19.3977831 C31.0855518,18.6662169 31.6789012,18.0748916 32.4081542,18.0748916 C33.1400096,18.0748916 33.7330699,18.6662169 33.7330699,19.3977831 C33.7330699,20.1293494 33.1400096,20.7206747 32.4081542,20.7206747 Z M34.9851181,18.8709398 L37.0719614,19.017253 C37.4446843,19.0453012 37.7254554,19.3659759 37.6991422,19.7386988 C37.6731181,20.1117108 37.3504193,20.3901687 36.9797205,20.3641446 L34.8928771,20.2178313 C34.5201542,20.1918072 34.2396723,19.8691084 34.2656964,19.4960964 C34.2917205,19.1253976 34.6144193,18.8449157 34.9851181,18.8709398 Z M37.6277205,15.3961446 C38.6319614,13.958747 39.8545157,12.1266506 41.357841,9.71768675 C41.4093108,9.6306506 41.4518169,9.54563855 41.4888289,9.4626506 C41.9260337,9.45108434 42.5908048,9.09889157 43.0265639,8.42457831 C43.4212627,7.81156627 43.4634795,7.30091566 43.2735036,6.99643373 C43.9504193,6.92819277 44.5483952,6.59566265 44.9656482,6.10438554 C44.9647807,6.1306988 44.9598651,6.15556627 44.9598651,6.18187952 C44.9598651,6.82756627 45.2007325,7.416 45.5954313,7.86708434 C45.196106,7.94168675 44.6469976,8.30428916 44.2656,8.83980723 C43.8017928,9.49214458 43.7673831,10.0013494 44.0400578,10.2028916 C43.9729735,10.2714217 43.909359,10.3428434 43.8509494,10.4168675 C42.1935036,12.581494 40.8124916,14.2632289 39.6576,15.6023133 C39.6075759,15.6621687 39.5673831,15.7223133 39.533841,15.7813012 C38.8907566,15.7208675 38.1855036,15.6575422 37.4400578,15.5953735 C37.5109012,15.5326265 37.5756723,15.4661205 37.6277205,15.3961446 Z M47.5238169,8.74554217 C47.6929735,8.74554217 47.8583711,8.72819277 48.0182747,8.69696386 C48.0714795,9.01648193 48.1833831,9.31546988 48.3432867,9.58351807 C48.0469012,9.62833735 47.5726843,9.96115663 47.2551904,10.3136386 C46.8090217,10.8063614 46.5999614,11.2594699 46.7393349,11.4604337 C46.6731181,11.5179759 46.6100819,11.5752289 46.556588,11.6301687 C44.8728289,13.3980723 43.4157687,14.8192771 42.1567807,15.9816867 C42.1376964,15.9999036 42.1191904,16.0192771 42.1006843,16.0383614 C41.6993349,15.9955663 41.1846361,15.9420723 40.5808771,15.8822169 C40.6384193,15.8368193 40.6927807,15.7902651 40.7381783,15.7445783 C41.9529253,14.4717108 43.3859855,12.8903133 45.0836241,10.8818313 C45.1423229,10.8098313 45.1963952,10.7378313 45.2452627,10.6666988 C45.5766361,10.6866506 46.1471422,10.3558554 46.556588,9.87614458 C46.9434795,9.42216867 47.1296964,8.99421687 47.0981783,8.70737349 C47.2366843,8.73050602 47.3783711,8.74554217 47.5238169,8.74554217 Z M39.7160096,18.6280482 C40.4475759,18.6280482 41.0409253,19.2190843 41.0409253,19.9509398 C41.0409253,20.682506 40.4475759,21.2738313 39.7160096,21.2738313 C38.9861783,21.2738313 38.3928289,20.682506 38.3928289,19.9509398 C38.3928289,19.2190843 38.9861783,18.6280482 39.7160096,18.6280482 Z M55.8951904,24.6821205 C50.8942265,25.7303133 48.8215518,25.982747 43.4796723,25.982747 C41.8014072,25.982747 40.2260819,25.8656386 38.725359,25.7019759 C38.8326361,25.6924337 38.9410699,25.6831807 39.0451663,25.6733494 C39.5474313,25.626506 42.2793831,25.3327229 43.6040096,24.5618313 C44.151094,24.3377349 44.5371181,23.8016386 44.5371181,23.173012 C44.5371181,22.4313253 43.9929253,21.8449157 43.2885398,21.7208675 L43.2885398,19.0950361 C43.9929253,18.9706988 44.5371181,18.3848675 44.5371181,17.6446265 C44.5371181,16.8127229 43.8656964,16.1413012 43.0358169,16.1413012 C43.0358169,16.1413012 42.9774072,16.1346506 42.8767807,16.1230843 C44.134612,15.0306506 45.5717205,13.709494 47.2080578,12.0931084 C47.2644434,12.0358554 47.3188048,11.9771566 47.3705639,11.9181687 C47.5989976,11.9603855 48.0943229,11.6212048 48.3915759,11.3256867 C48.7429012,10.9760964 49.0031422,10.6094458 49.0520096,10.3561446 C49.4727325,10.6586024 49.9871422,10.8384578 50.544347,10.8384578 C51.9591904,10.8384578 53.1059855,9.68992771 53.1059855,8.27479518 C53.1059855,6.95595181 52.1118651,5.86959036 50.8309012,5.7273253 C51.5124434,6.00173494 51.9936,6.66737349 51.9936,7.44693976 C51.9936,8.46939759 51.1657446,9.29696386 50.1432867,9.29696386 C49.5103229,9.29696386 48.9525398,8.98004819 48.618853,8.49686747 C49.4851663,8.08539759 50.0854554,7.20462651 50.0854554,6.18187952 C50.0854554,4.86303614 49.0910458,3.7786988 47.8103711,3.63412048 C48.4916241,3.90881928 48.9727807,4.57445783 48.9727807,5.3540241 C48.9727807,6.37648193 48.1429012,7.20404819 47.1207325,7.20404819 C46.1876241,7.20404819 45.4190458,6.51383133 45.2915277,5.61628916 C45.4722506,5.26525301 45.5757687,4.86795181 45.5757687,4.44578313 C45.5757687,3.12693976 44.5819373,2.04057831 43.3009735,1.89831325 C43.9822265,2.17098795 44.4636723,2.83836145 44.4636723,3.61821687 C44.4636723,4.64038554 43.6355277,5.46824096 42.6113349,5.46824096 C41.5911904,5.46824096 40.7613108,4.64038554 40.7613108,3.61821687 C40.7613108,3.43575904 40.7876241,3.25908434 40.837359,3.09281928 C40.5930217,3.48578313 40.4507566,3.94872289 40.4507566,4.44578313 C40.4507566,5.15508434 40.7393349,5.79701205 41.2051663,6.26139759 C40.6893108,6.1899759 39.812588,6.62804819 39.3823229,7.5426506 C38.9997687,8.35518072 39.2134554,8.89214458 39.6240578,9.07344578 C39.5650699,9.15440964 39.5092627,9.23913253 39.4598169,9.32877108 C38.1207325,11.8782651 37.0462265,13.794506 36.1703711,15.2836627 C36.1313349,15.3547952 36.1079133,15.4224578 36.092588,15.4880964 C35.2488289,15.4239036 34.3764434,15.363759 33.5008771,15.3128675 C33.5396241,15.2593735 33.5743229,15.2038554 33.6000578,15.1448675 C34.2174072,13.5874699 34.983094,11.5630843 35.9532145,8.82910843 C35.9853108,8.73021687 36.0072867,8.63479518 36.022612,8.54255422 C36.5448289,8.48819277 37.2593349,8.08077108 37.5878169,7.24192771 C37.9501301,6.31315663 37.6014072,5.68453012 37.0722506,5.4826988 C37.9541783,5.0773012 38.5680578,4.18814458 38.5680578,3.1546988 C38.5680578,1.83585542 37.5719133,0.749204819 36.2912386,0.606939759 C36.9724916,0.879614458 37.4536482,1.54727711 37.4536482,2.32684337 C37.4536482,3.34901205 36.6257928,4.17686747 35.6016,4.17686747 C34.5794313,4.17686747 33.7515759,3.34901205 33.7515759,2.32684337 C33.7515759,2.14438554 33.7773108,1.968 33.8276241,1.80144578 C33.5812627,2.19440964 33.4407325,2.6573494 33.4407325,3.1546988 C33.4407325,3.96954217 33.8224193,4.69445783 34.4154795,5.16433735 C33.7966843,5.21927711 32.9939855,5.74322892 32.8014072,6.75093976 C32.6270458,7.66554217 33.0986602,8.18428916 33.6124916,8.32857831 C33.5722988,8.41966265 33.5352867,8.51363855 33.5078169,8.61455422 C32.8262747,11.4289157 32.293359,13.4995663 31.8662747,15.0870361 C31.8549976,15.1356145 31.8497928,15.182747 31.8495036,15.2284337 C30.8504675,15.1847711 29.874853,15.1575904 28.964588,15.1541205 C28.9744193,15.1182651 28.9845398,15.0824096 28.9882988,15.044241 C29.0655036,13.7843855 29.158612,12.2171566 29.2739855,10.2167711 C29.3066602,9.66448193 29.3404916,9.08125301 29.376347,8.45956627 C29.3792386,8.35546988 29.3720096,8.25657831 29.3584193,8.16173494 C29.9104193,8.05706024 30.5601542,7.58313253 30.6567325,6.6566747 C30.7538892,5.70910843 30.2166361,5.13455422 29.6443952,4.95672289 C30.3525398,4.50014458 30.8229976,3.70640964 30.8229976,2.80192771 C30.8229976,1.48308434 29.8265639,0.396722892 28.5458892,0.254168675 C29.2274313,0.52886747 29.7082988,1.19450602 29.7082988,1.97407229 C29.7082988,2.99624096 28.8807325,3.82409639 27.8582747,3.82409639 C26.8340819,3.82409639 26.0062265,2.99624096 26.0062265,1.97407229 C26.0062265,1.79161446 26.0322506,1.61349398 26.0822747,1.44693976 C25.8376482,1.83990361 25.6953831,2.30486747 25.6953831,2.80192771 C25.6953831,3.6893494 26.1467566,4.47180723 26.8326361,4.93214458 C26.8216482,4.93243373 26.8103711,4.93243373 26.7993831,4.93301205 C26.1239133,4.98303614 25.3559133,5.60443373 25.4724434,6.72289157 C25.5669976,7.63778313 26.2135518,8.09783133 26.7591904,8.19036145 C26.7461783,8.28520482 26.7395277,8.38409639 26.7424193,8.48790361 C26.9107084,11.3499759 27.0492145,13.4486747 27.1634313,15.0523373 C27.1680578,15.0942651 27.1790458,15.1341687 27.1911904,15.1737831 C26.2572145,15.1960482 25.296347,15.2359518 24.3395277,15.288 C24.3412627,15.2330602 24.3377928,15.1763855 24.3236241,15.1168193 C23.8884434,13.5455422 23.3514795,11.5009157 22.6800578,8.72877108 C22.6531663,8.62959036 22.6173108,8.53677108 22.5774072,8.44742169 C23.082853,8.29445783 23.5376964,7.76906024 23.367094,6.86862651 C23.182612,5.89995181 22.4215518,5.39566265 21.8241542,5.34390361 C22.5635277,4.8939759 23.0594313,4.08289157 23.0594313,3.1546988 C23.0594313,1.83585542 22.0632867,0.751228916 20.7823229,0.606939759 C21.4638651,0.881638554 21.9450217,1.54727711 21.9450217,2.32684337 C21.9450217,3.34901205 21.1168771,4.17686747 20.0947084,4.17686747 C19.0705157,4.17686747 18.2429494,3.34901205 18.2429494,2.32684337 C18.2429494,2.14438554 18.2689735,1.968 18.3189976,1.80144578 C18.0743711,2.19440964 17.932106,2.6573494 17.932106,3.1546988 C17.932106,4.31826506 18.7079133,5.30024096 19.7714313,5.61281928 C19.6520096,5.63248193 19.530853,5.64983133 19.4122988,5.67007229 C18.8047807,5.80250602 18.365841,6.47190361 18.7486843,7.4660241 C19.0612627,8.27363855 19.7465639,8.66631325 20.2496964,8.70881928 C20.2650217,8.80019277 20.2852627,8.89387952 20.3167807,8.99161446 C21.258853,11.6634217 22.0164434,13.6536867 22.6320578,15.1891084 C22.6621301,15.2582169 22.7055036,15.3226988 22.7537928,15.384 C21.8903711,15.4418313 21.0451663,15.5060241 20.2427566,15.5728193 C20.2282988,15.5008193 20.2014072,15.4247711 20.1577446,15.3464096 C19.2998169,13.8873253 18.2576964,12.0190843 16.9828048,9.54766265 C16.9353831,9.46062651 16.8821783,9.37792771 16.8252145,9.29927711 C17.2178892,9.11103614 17.4075759,8.57956627 17.0464193,7.80289157 C16.6924916,7.03604819 16.0060337,6.61387952 15.5121542,6.58293976 C16.2035277,6.12346988 16.6598169,5.33812048 16.6598169,4.44578313 C16.6598169,3.12693976 15.6656964,2.04057831 14.3850217,1.89831325 C15.0662747,2.17301205 15.5477205,2.83836145 15.5477205,3.61821687 C15.5477205,4.64038554 14.7195759,5.46824096 13.6974072,5.46824096 C12.6732145,5.46824096 11.845359,4.64038554 11.845359,3.61821687 C11.845359,3.43575904 11.8713831,3.25908434 11.9216964,3.09281928 C11.7198651,3.41407229 11.5943711,3.7833253 11.5536,4.17860241 C11.1857928,3.88539759 10.7361542,3.68963855 10.2437205,3.63412048 C10.9249735,3.90881928 11.4061301,4.57445783 11.4061301,5.3540241 C11.4061301,6.37648193 10.5782747,7.20404819 9.55610602,7.20404819 C8.53191325,7.20404819 7.70405783,6.37648193 7.70405783,5.3540241 C7.70405783,5.17156627 7.72979277,4.99518072 7.78010602,4.82891566 C7.53576867,5.22187952 7.39321446,5.68481928 7.39321446,6.18187952 C7.39321446,7.032 7.80873253,7.78351807 8.44632289,8.25021687 C8.14820241,8.87248193 7.5149494,9.30245783 6.77904578,9.30245783 C5.75687711,9.30245783 4.92699759,8.47489157 4.92699759,7.45040964 C4.92699759,7.26824096 4.95331084,7.09156627 5.00333494,6.92559036 C4.75870843,7.31826506 4.61644337,7.78322892 4.61644337,8.28028916 C4.61644337,9.69542169 5.76497349,10.8439518 7.18010602,10.8439518 C7.54588916,10.8439518 7.89316627,10.7658795 8.20805783,10.6276627 C8.20834699,10.6458795 8.20863614,10.6635181 8.20863614,10.6817349 C8.07822651,10.8503133 8.31302169,11.2091566 8.79591325,11.6079036 C8.80603373,11.6157108 8.81210602,11.6238072 8.81991325,11.6319036 C9.07466024,11.8904096 9.53355181,12.2368193 9.74116627,12.1876627 C9.78916627,12.2434699 9.83832289,12.2986988 9.88979277,12.3527711 C11.3890699,13.8896386 12.7226602,15.1558554 13.9015518,16.209253 C13.2139373,16.3474699 12.6951904,16.9546988 12.6951904,17.682506 C12.6951904,18.4152289 13.2301301,18.9973012 13.924106,19.1306024 L13.924106,21.7633735 C13.2301301,21.8963855 12.6951904,22.478747 12.6951904,23.2111807 C12.6951904,23.749012 12.980588,24.2177349 13.4056482,24.4834699 C14.0964434,25.0545542 16.630612,25.4258313 19.4513349,25.6643855 C17.8479614,25.8482892 16.1584193,25.982747 14.3514795,25.982747 C9.00988916,25.982747 6.93721446,25.7303133 1.9362506,24.6821205 C0.767479518,32.2987952 5.78313253e-05,36.877012 5.78313253e-05,44.756241 C5.78313253e-05,58.5805301 6.61653976,81.5832289 27.5286361,94.5860241 L28.9157205,95.4213976 L30.3028048,94.5860241 C51.2149012,81.5832289 57.8313831,58.5805301 57.8313831,44.756241 C57.8313831,36.877012 57.0656964,32.2987952 55.8951904,24.6821205 Z" id="Fill-13" fill="#FEFEFE" mask="url(#mask-10)"></path>
                    </g>
                    <path d="M23.6213783,31.8343229 C23.6179084,31.7981783 23.6089446,31.7657928 23.6025831,31.7316723 C23.5988241,31.7128771 23.5968,31.6920578 23.5918843,31.6744193 C23.5438843,31.481841 23.447306,31.3262747 23.3004145,31.2146602 C22.9889928,30.9789976 22.5653783,31.0229494 22.3982458,31.0483952 C21.9957398,31.1189494 21.2297639,31.4153349 20.6482699,31.6776 C20.4181012,31.7822747 20.2616675,31.8909976 20.122294,31.985841 C19.8866313,32.1495036 19.7163181,32.2669012 19.2701494,32.3157687 C18.8424867,32.3666602 18.5114024,32.1787084 18.5085108,32.1758169 L18.3283663,32.4909976 C18.3431133,32.4996723 18.6741976,32.6867566 19.1261494,32.6867566 C19.1860048,32.6867566 19.2475952,32.6838651 19.3103422,32.6760578 C19.8464386,32.617359 20.0815229,32.4557205 20.329041,32.2845398 C20.4611855,32.1934554 20.5970892,32.0994795 20.7977639,32.0086843 C21.2598361,31.7996241 21.7288482,31.6177446 22.0798843,31.5072867 C21.7881253,31.6796241 21.4619566,31.9716723 21.1424386,32.259094 L20.8920289,32.4831904 C20.7488964,32.6075277 20.650294,32.7142265 20.5641253,32.8070458 C20.3573783,33.0302747 20.2625349,33.1320578 19.7721253,33.2141783 C19.1781976,33.3171181 19.0301494,33.1398651 19.0292819,33.1389976 L18.721041,33.3286843 C18.7577639,33.3914313 18.977812,33.6837687 19.7345349,33.5837205 C19.7455229,33.5848771 19.7565108,33.5851663 19.7672096,33.5863229 C19.8238843,33.5912386 19.8770892,33.5932627 19.9268241,33.5932627 C20.0815229,33.5932627 20.2038361,33.5736 20.3056193,33.5391904 C20.3585349,33.5256 20.4111614,33.5079614 20.462053,33.4862747 C20.7509205,33.366853 20.8391133,33.411094 20.9434988,33.4637205 C21.0464386,33.5157687 21.1658602,33.5744675 21.416559,33.5059373 C21.6669687,33.4423229 21.6973301,33.4217928 21.7464867,33.3434313 C21.7774265,33.2925398 21.8361253,33.1976964 22.2198361,32.9568289 C22.2874988,32.9149012 22.3383904,32.8833831 22.3774265,32.8599614 C22.5115952,32.777841 22.5194024,32.7729253 22.5772337,32.6994795 C22.6211855,32.6428048 22.7044627,32.5369735 22.9548723,32.2787566 C23.0566554,32.1737928 23.1665349,32.0396241 23.1104386,31.9340819 C23.0517398,31.8216 22.8640771,31.8302747 22.5185349,31.8889735 C22.3132337,31.9248289 22.0654265,32.0202506 21.8112578,32.1544193 C22.0726554,31.9343711 22.3268241,31.7478651 22.4942458,31.7189494 C22.5575711,31.707094 22.6261012,31.6914795 22.6975229,31.673841 C22.8681253,31.6327807 23.0803663,31.5789976 23.1720289,31.6463711 C23.2122217,31.6741301 23.2339084,31.7322506 23.2469205,31.792106 C23.2506795,31.8091663 23.2538602,31.8265157 23.2564627,31.8450217 C23.2576193,31.8534072 23.2593542,31.8623711 23.2602217,31.8704675 C23.3189205,32.4265157 23.2026795,32.8706602 22.4430651,33.2269012 C22.0162699,33.4275759 21.728559,33.6487807 21.4966554,33.8260337 C21.272559,33.9972145 21.0955952,34.1334072 20.8781494,34.1892145 C20.6959807,34.2351904 20.4504867,34.1822747 20.1911133,34.1284916 C19.8290892,34.0521542 19.4199325,33.963094 19.0428723,34.1215518 L19.1012819,34.2620819 C19.0712096,34.2869494 19.0472096,34.3202024 19.0518361,34.3644434 C19.0654265,34.4876241 19.2652337,34.5327325 19.8779566,34.6414554 C20.3105349,34.7175036 20.9027277,34.8213108 21.0160771,34.9632867 C21.2734265,35.2871422 21.8803663,35.0766361 22.0723663,34.9994313 L22.5029205,35.7677205 L22.6318843,35.7266602 C22.6310169,35.7130699 22.4988723,34.4199614 22.551788,34.1059373 C22.6049928,33.7820819 22.7781976,33.540347 22.882294,33.4012627 C23.4655229,33.0389494 23.6951133,32.5447807 23.6205108,31.8343229 L23.6213783,31.8343229 Z" id="Fill-16" fill="#FEFEFE"></path>
                    <path d="M17.6758843,39.6875566 C17.4763663,39.6453398 17.1718843,39.584906 17.1316916,39.7893398 L17.1227277,39.8283759 C17.0972819,39.9420145 17.1024867,40.0007133 17.2528482,40.1212916 C17.2843663,40.1464482 17.3106795,40.1649542 17.3341012,40.1817253 C17.4104386,40.2355084 17.4104386,40.2355084 17.3783422,40.3618699 C17.3430651,40.5058699 17.2745349,40.6163277 17.2392578,40.6663518 C17.1814265,40.6634602 17.069812,40.6643277 17.0004145,40.723894 C16.9590651,40.7591711 16.9376675,40.8080386 16.9376675,40.8650024 C16.9376675,40.9089542 16.933041,40.9557976 16.9281253,41.0029301 C16.9133783,41.1437494 16.8957398,41.3033639 17.019788,41.3797012 C17.0397398,41.3915566 17.0582458,41.405147 17.0758843,41.4187373 C17.1354506,41.4638458 17.1921253,41.4991229 17.2667277,41.4991229 C17.3314988,41.4991229 17.407547,41.4725205 17.5104867,41.4010988 C17.7608964,41.2241349 17.8265349,41.1654361 17.8265349,40.8650024 C17.8265349,40.7710265 17.8294265,40.6808096 17.8314506,40.5957976 C17.8372337,40.4361831 17.8409928,40.2855325 17.8256675,40.1542554 C17.8187277,40.1004723 17.8314506,40.0458217 17.8430169,39.9937735 C17.859788,39.9194602 17.8774265,39.8431229 17.8343422,39.7774843 C17.8048482,39.7326651 17.7530892,39.7031711 17.6758843,39.6875566" id="Fill-18" fill="#FEFEFE"></path>
                    <path d="M31.3503904,55.6122217 C32.0932337,55.1267277 34.067306,53.8388241 34.9608,52.1131373 C35.4963181,51.0759325 35.8008,49.2869205 35.8135229,49.2114506 L35.6851373,49.1643181 C35.6724145,49.1868723 34.3648482,51.3890892 33.334294,52.6272578 C32.7056675,53.3787759 31.6048482,54.4712096 31.5932819,54.4819084 L31.5921253,54.4827759 C30.7709205,55.3265349 30.4088964,55.8198361 30.5164627,55.9508241 C30.5369928,55.9754024 30.5644627,55.9910169 30.6087036,55.9910169 C30.7113542,55.9910169 30.9050892,55.9028241 31.3055711,55.6417157 L31.3503904,55.6122217 Z" id="Fill-20" fill="#FEFEFE"></path>
                    <path d="M36.4662651,51.264694 C36.3870361,51.2441639 36.3407711,51.3028627 35.9738313,52.0691277 C35.6392771,52.7651277 35.1341205,53.816212 34.6593253,54.4416578 C34.1671807,55.0896578 33.7519518,55.4840675 33.270506,55.9420916 C33.0640482,56.1378506 32.8497831,56.3414169 32.6089157,56.5831518 C32.3799036,56.8130313 32.0259759,57.1438265 31.7125301,57.4347181 C31.0234699,58.0778024 31.0234699,58.0778024 31.0763855,58.1411277 C31.092,58.1599229 31.1087711,58.1677301 31.1261205,58.1677301 C31.1613976,58.1677301 31.202747,58.1373687 31.2495904,58.102959 C31.3250602,58.0471518 31.5052048,57.9494169 31.7330602,57.8250795 C32.7558072,57.2693205 34.8845783,56.1112482 35.7260241,54.493706 C36.3213976,53.3454651 36.5319036,51.6894651 36.5319036,51.3705253 C36.5319036,51.2959229 36.495759,51.2716337 36.4662651,51.264694" id="Fill-22" fill="#FEFEFE"></path>
                    <path d="M30.1926361,37.9355566 L30.1926361,37.9375807 C30.0957687,38.0364723 29.9332627,38.2614361 29.7166843,38.562159 C29.2832386,39.1630265 28.6901783,39.9850988 28.2497928,40.2970988 C27.7593831,40.6458217 27.5101301,40.9384482 27.3091663,41.1732434 C27.2250217,41.2721349 27.1527325,41.357147 27.0735036,41.434641 L27.072347,41.4355084 C26.3205398,42.1734361 25.6953831,43.8618217 25.6699373,43.9332434 L25.7835759,44.0055325 C25.8165398,43.971412 29.1189976,40.6299181 29.7629494,39.9009542 C30.3687325,39.2159422 30.3461783,38.1998458 30.3354795,37.9942554 L30.4401542,37.9023036 L30.3490699,37.7984964 L30.1926361,37.9355566 Z" id="Fill-24" fill="#FEFEFE"></path>
                    <path d="M30.6407711,52.7974554 C30.7445783,52.7974554 30.9371566,52.7083952 31.3376386,52.4469976 C32.3005301,51.8186602 34.0528193,50.5249735 34.9581687,48.9296964 C35.7808193,47.4772627 36.1176867,44.797359 36.1205783,44.7710458 L35.9884337,44.7349012 C35.9757108,44.7661301 34.6623614,47.8187566 33.3666506,49.4336964 C32.7550843,50.199094 31.6372048,51.2764916 31.6262169,51.2871904 L31.6244819,51.2892145 C30.8032771,52.1329735 30.4421205,52.6262747 30.5488193,52.7563952 C30.5693494,52.781841 30.5968193,52.7974554 30.6407711,52.7974554" id="Fill-26" fill="#FEFEFE"></path>
                    <path d="M45.3039036,43.614188 L45.267759,43.7443084 C45.2816386,43.7521157 46.694747,44.5585735 46.5900723,46.1735133 C46.5782169,46.311441 46.323759,46.6766458 46.1653012,46.8741398 L46.0409639,47.0288386 L46.2346988,46.9848867 C46.2465542,46.981706 47.4014458,46.7067181 47.2516627,45.5813205 C47.0061687,43.7110554 45.3206747,43.6150554 45.3039036,43.614188" id="Fill-28" fill="#FEFEFE"></path>
                    <path d="M49.3543518,45.7686072 C49.1155084,45.6335711 48.7797976,45.4511133 48.5366169,45.3493301 C48.1598458,45.1917398 48.1237012,45.1058602 47.955412,44.4792578 C47.9123277,44.3187759 47.8614361,44.239547 47.7900145,44.2207518 C47.7625446,44.2161253 47.7145446,44.2112096 47.663653,44.2658602 C47.5265928,44.4118843 47.4482313,44.957812 47.5286169,45.2076434 C47.6275084,45.5109687 47.975653,45.6723181 48.4582554,45.8964145 C48.5886651,45.9571373 48.7286169,46.0216193 48.8755084,46.0950651 C49.129388,46.2225831 49.3254361,46.301812 49.4659663,46.3353542 C49.7828819,46.8332819 49.8907373,47.5104867 49.7904,48.4019566 L49.7736289,48.5430651 L50.3710265,49.196559 C50.1475084,49.1222458 49.8490988,49.0939084 49.4584482,49.159547 L49.0704,49.124559 C48.8919904,48.8825349 48.6820627,48.5641735 48.6248096,48.3363181 C48.5045205,47.8568964 48.5493398,47.5162699 48.7766169,47.1961735 C48.8957494,47.0270169 48.9350747,46.8890892 48.8919904,46.7852819 C48.8575807,46.6999807 48.7754602,46.6638361 48.7471229,46.6600771 C48.738159,46.6568964 48.5290988,46.5678361 48.3527133,46.6461976 C48.2645205,46.6863904 48.2020627,46.7598361 48.1667855,46.8645108 C48.149147,46.9174265 48.1245687,46.9732337 48.0991229,47.0319325 C47.9681349,47.3352578 47.7888578,47.7501976 48.1150265,48.5419084 C48.2095807,48.7732337 48.2723277,48.9360289 48.3159904,49.0566072 L48.2087133,49.0470651 L48.1627373,49.3339084 C48.0991229,49.7234024 47.890641,50.330053 47.7998458,50.5865349 L47.5109783,50.715788 L47.3181108,50.4191133 L47.2339663,50.5625349 L47.0116048,50.3809446 C47.3846169,49.9639807 47.7223518,49.1124145 47.6069783,48.5977157 C47.5610024,48.3950169 47.4482313,48.2562217 47.2790747,48.1954988 C46.9913639,48.0916916 46.7935807,48.1200289 46.6330988,48.1454747 C46.4286651,48.1798843 46.2924723,48.1946313 46.0516048,47.9312096 C45.9188819,47.7851855 45.8260627,47.6654747 45.7569542,47.5657157 C45.7734361,47.4812819 45.791653,47.3945349 45.811894,47.3028723 L45.8960386,46.9240771 L45.6054361,46.9240771 C45.7248578,46.3064386 45.3579181,45.2828241 45.2784,45.0723181 L45.2356048,44.9589687 L45.1268819,44.9040289 C44.3886651,44.531306 43.7366169,44.4049446 43.1753639,44.5185831 C43.3106892,44.3283181 43.5235084,44.0521735 43.8632675,43.6514024 L43.9465446,43.5525108 L43.818159,43.5672578 C43.0753157,43.6514024 42.4264482,43.7667759 41.999653,44.324559 C41.2640386,45.2906313 41.0483277,46.1676434 41.2570988,47.3528964 C41.4791711,48.622294 41.9557012,49.6409928 41.960906,49.6508241 L41.962641,49.6502458 C42.0337735,49.8425349 42.1150265,50.0255711 42.2092916,50.1901012 C42.3865446,50.5006554 42.6728096,50.974294 43.0010024,51.5092337 L43.6539181,52.8934265 C43.6568096,52.8983422 43.9925205,53.4032096 45.0161349,55.021041 C46.1357494,56.7895229 46.5333398,58.6080289 46.5333398,59.6278843 C46.5333398,60.799547 46.0420627,61.6803181 46.0330988,61.6959325 C46.0281831,61.7095229 45.5299663,63.0026313 45.0054361,63.3314024 C44.8498699,63.4294265 44.7223518,63.4360771 44.5876048,63.4447518 C44.2724241,63.463547 43.9740145,63.482053 43.443412,64.6250892 C43.2592193,65.0192096 43.315894,65.2606554 43.4246169,65.4049446 C43.3161831,65.7088482 43.2063036,66.1026795 43.195894,66.3655229 C42.9593639,67.0898602 42.6571952,67.9029687 42.287653,68.6015711 C41.8961349,69.3447036 41.1483759,70.0424386 40.4260627,70.7167518 C39.5707373,71.5154024 38.831653,72.2044627 38.8122795,72.8397398 C38.8062072,73.059788 38.8903518,73.2633542 39.0560386,73.436559 L39.1456771,73.5863422 C39.5747855,74.2979566 40.0599904,75.1044145 39.9486651,75.6650892 C39.8182554,76.307306 39.0314602,77.5012337 39.0233639,77.5130892 C37.5339181,79.7239807 37.3939663,80.4118843 37.2707855,81.0188241 C37.208906,81.3238843 37.155412,81.5875952 36.9310265,82.0161253 C36.5805687,82.3047036 36.0999904,82.4741494 35.7486651,82.5984867 C35.4063036,82.7199325 35.1966651,82.7939566 35.2053398,82.9252337 L35.0538217,83.8051373 L35.0399422,86.4674024 C34.4578699,86.9635952 33.7534843,87.4083181 33.1884723,87.5754506 L33.5583036,84.1527036 C33.5525205,84.0830169 33.6074602,83.8421494 33.6369542,83.7131855 C33.6621108,83.597812 33.682641,83.5067277 33.695653,83.4312578 C34.9121349,82.5837398 36.6031229,78.7842217 36.7939663,77.8036916 L36.7832675,77.6599807 C36.9515566,77.023547 37.2618217,75.626053 36.167653,75.0173783 C35.8623036,74.7461494 35.0665446,74.1530892 34.2965205,73.5794024 C33.6788819,73.1193542 32.9184,72.5537639 32.7735325,72.4305831 C32.6740627,71.9913542 32.3681349,71.2213301 32.0815807,70.5082699 C31.8323277,69.5656193 31.5908819,68.5298602 31.5686169,67.9821976 C31.5755566,67.9625349 31.5726651,67.9365108 31.5674602,67.9038361 C31.5674602,67.8520771 31.5472193,67.7202217 31.5159904,67.5201253 L31.4873639,67.3350651 C31.4237494,66.843788 31.3384482,66.1148241 31.2895807,65.4335711 C31.2849542,65.2008 31.2858217,64.9943422 31.2936289,64.8003181 L31.2985446,64.6652819 C31.3317976,63.7414265 31.3338217,63.7044145 31.3699663,63.6679807 C31.4032193,63.6338602 31.4552675,63.581812 31.5402795,63.2998843 C31.7134843,62.7224386 31.9991711,62.5122217 32.9311229,62.2791614 C33.1951229,62.2126554 33.4761831,62.211788 33.7237012,62.2109205 C34.1739181,62.2088964 34.5625446,62.2077398 34.5842313,61.7968482 C34.6064964,61.3983904 34.2083277,61.3104867 33.4134361,61.1341012 L33.363412,61.1234024 C32.6775325,60.9698602 31.9413398,61.2477398 31.6568096,61.373812 C31.1536771,61.5999325 30.5166651,62.2508241 30.3668819,62.4092819 L30.047653,62.167547 L30.0250988,62.0706795 C29.9950265,61.9139566 29.6454361,61.693041 29.0289542,61.3142458 C28.8681831,61.2153542 28.6990265,61.111547 28.5336289,61.0068723 L28.4925687,60.9744867 C27.9553157,60.4918843 27.4443759,60.0645108 27.173147,59.8522699 C24.898641,56.8817639 24.5033639,55.898053 24.571894,55.5964627 C24.7410506,54.8547759 25.7736289,54.4829205 26.5283277,54.2108241 C27.0589301,54.0199807 27.4423518,53.8817639 27.4727133,53.6683663 C27.4874602,53.5714988 27.4276048,53.4766554 27.2917012,53.3768964 C26.9805687,53.1487518 26.3363277,53.3740048 25.7698699,53.5714988 C25.4703036,53.6764627 25.1863518,53.7762217 25.0287614,53.7762217 C24.8966169,53.7762217 23.7006651,53.7663904 22.565147,53.4512096 C21.9850988,53.2887036 21.3026892,52.5577157 20.7009542,51.9117398 C20.3204241,51.5034506 19.9913639,51.1512578 19.7418217,51.0006072 C19.4130506,50.8039807 19.129388,50.5122217 18.8784,50.2557398 C18.6467855,50.0168964 18.4458217,49.811306 18.2515084,49.7173301 C17.864906,49.532559 15.3446169,47.9254265 15.3188819,47.9086554 L13.0701108,47.3135711 L11.5566651,47.2461976 C11.423653,47.2704867 11.2816771,47.276559 11.131894,47.2832096 C10.6721349,47.3028723 10.1513639,47.326294 9.76476145,47.9303422 C9.50452048,47.9751614 8.64225542,48.541041 8.5277494,48.6974747 L8.50895422,48.7229205 L8.52283373,48.7503904 C8.57748434,48.8611373 8.69719518,49.1731373 8.59020723,49.2994988 C8.48755663,49.4160289 8.18018313,49.3758361 8.07146024,49.3495229 L8.03155663,49.3396916 L7.14124337,51.2275952 C6.92119518,51.2391614 6.69189398,51.2417639 6.44321928,51.2296193 C6.29517108,51.221812 6.11618313,51.2189205 5.93199036,51.2157398 C5.76080964,51.2140048 5.51994217,51.2108241 5.3290988,51.1981012 C5.84495422,50.4347277 6.4617253,49.2477398 6.47329157,49.2211373 L6.7344,48.8434988 C6.7670747,48.8004145 6.80611084,48.7396916 6.84832771,48.6731855 C6.90211084,48.5887518 7.00678554,48.4236434 7.07213494,48.3608964 L7.19184578,48.3617639 L7.28466506,48.2131373 C7.81324337,47.3586795 8.5344,47.1432578 8.81921928,47.0906313 L9.84225542,46.3937639 L13.5527133,46.3743904 L13.5602313,46.4923663 C13.563412,46.4923663 14.1697735,46.4533301 14.9120386,46.4368482 C15.450159,46.4336675 16.2115084,46.6511133 16.5443277,46.7479807 C16.6145928,46.7685108 16.6646169,46.7821012 16.7048096,46.7928 C16.818159,46.8604627 17.0844723,47.0406072 17.3880867,47.2441735 C18.0517012,47.6894747 18.5392193,48.0136193 18.7641831,48.1261012 C19.2042795,48.3461494 21.6884241,49.0282699 22.0437976,49.0508241 C22.0761831,49.0528482 22.1131952,49.0528482 22.1545446,49.0528482 C22.5009542,49.0528482 23.1018217,48.9883663 23.2307855,48.9744867 L23.1793157,48.509812 L23.1793157,47.8334747 C23.1793157,47.4379084 22.9237012,47.2207518 22.6975807,47.0299084 C22.5917494,46.9408482 22.4928578,46.855547 22.4304,46.7627277 C22.338159,46.6245108 22.2268337,46.5366072 22.1184,46.451306 C22.0134361,46.3688964 21.9130988,46.2896675 21.8269301,46.1670651 C21.848906,46.1740048 21.8711711,46.1803663 21.8948819,46.1832578 C21.9136771,46.1852819 21.9321831,46.187306 21.9498217,46.187306 C22.0368578,46.1861494 22.1082795,46.1598361 22.1611952,46.1048964 C22.2999904,45.962053 22.2600867,45.6792578 22.2337735,45.491306 C22.2268337,45.443306 22.2207614,45.4042699 22.2207614,45.3788241 C22.2207614,44.7768 22.2739663,44.4098602 22.3187855,44.2071614 C22.3549301,44.0466795 22.5732434,43.6268241 23.6332916,42.6217157 C23.698641,42.5601253 23.8779181,42.4103422 24.104906,42.2194988 C24.7636048,41.6663422 25.8658699,40.7424867 26.3464482,40.1974265 C26.9932916,39.4644145 27.6930506,38.1606072 27.7477012,37.7899084 C27.7965687,37.4591133 28.1432675,35.8401253 28.1458699,35.8245108 L28.0148819,35.7834506 C28.0070747,35.8019566 27.2633639,37.6077398 27.0294361,38.0990169 C26.8119904,38.5648482 25.5252434,40.1046072 24.8309783,40.5938602 C24.1488578,41.0802217 22.8534361,42.275306 22.5535807,42.5716916 C21.8529542,43.2598843 21.5134843,44.7554024 21.4568096,45.0254747 L21.3703518,45.0541012 C21.3573398,44.963306 21.3486651,44.8670169 21.3486651,44.7603181 C21.3486651,44.5897157 21.331894,44.4017639 21.3096289,44.2103422 C21.3741108,44.1762217 21.4310747,44.0440771 21.553388,43.7520289 L21.6022554,43.6375229 C21.8529542,43.0522699 21.9879904,42.7928964 22.5272675,42.1694747 C22.8129542,41.8398361 23.0254843,41.6568 23.2516048,41.4619084 C23.4589301,41.2829205 23.6734843,41.0978602 23.9611952,40.7867277 C24.5611952,40.1358361 24.9506892,39.6971855 25.2930506,39.1021012 C25.6307855,38.5119325 26.0321349,35.8363663 26.0486169,35.7215711 L25.9144482,35.6914988 C25.9098217,35.7042217 25.5145446,36.9785349 25.2687614,37.5030651 C25.1854843,37.6840771 25.1267855,37.8289446 25.0701108,37.9688964 C24.961388,38.2381012 24.8682795,38.4700048 24.6375325,38.8320289 C24.2862072,39.3851855 23.9964723,39.6650892 23.5184964,40.0505349 C23.3747855,40.165041 23.2446651,40.2532337 23.1194602,40.3394024 C22.8109301,40.5487518 22.544906,40.7288964 22.219894,41.1996434 C22.1690024,41.2719325 22.1172434,41.3453783 22.0651952,41.4179566 C21.6898699,41.9465349 21.3055807,42.4921735 21.1983036,43.2480289 C21.1907855,43.1280289 21.187894,43.015547 21.1983036,42.9221494 C21.2332916,42.6032096 21.4221108,42.0159325 21.5464482,41.627306 C21.5956048,41.4766554 21.6337735,41.3572337 21.6485205,41.2994024 C21.6944964,41.1117398 22.0770506,40.5322699 22.2158458,40.4391614 C22.3725687,40.3353542 22.7045205,39.7434506 22.7447133,39.6679807 C23.3169542,37.9963663 22.819894,35.9763181 22.8149783,35.9554988 L22.7140627,35.9664867 C22.7131952,35.9878843 22.6377253,38.1126072 22.5055807,38.5787277 C22.3803759,39.0170892 21.7757494,39.7989687 21.7092434,39.8842699 C21.6158458,39.9389205 20.8663518,40.390294 20.4100627,40.9128 C20.1530024,41.206294 20.0613398,41.5075952 20.0309783,41.7331373 L19.7007614,41.6148723 L19.6770506,41.516559 C19.6513157,41.5208964 19.589147,41.5310169 19.5055807,41.5448964 L19.3699663,41.4963181 L19.3416289,41.5723663 C18.8879422,41.6487036 18.1367133,41.780559 17.995894,41.8386795 C17.9010506,41.8768482 17.8449542,41.9384386 17.8001349,41.9875952 C17.7295807,42.0656675 17.6847614,42.1119325 17.5072193,42.0746313 C17.3675566,42.0454265 17.2646169,42.0023422 17.1903036,41.9708241 C17.0818699,41.9268723 16.9818217,41.883788 16.9043277,41.9815229 C16.8869783,42.0061012 16.8635566,42.0569928 16.9063518,42.1304386 C16.9838458,42.2654747 17.2568096,42.4300048 17.4447614,42.4300048 C17.4557494,42.4300048 17.4673157,42.4288482 17.4780145,42.4279807 L17.5153157,42.4230651 C17.7148337,42.3996434 17.9635084,42.3692819 18.1153157,42.2440771 C18.1881831,42.1821976 18.7433639,41.9794988 19.2540145,41.8039807 C19.0903518,42.2336675 18.891412,42.3374747 18.4166169,42.3074024 L18.287653,42.2987277 L17.7217735,42.7891373 C17.6006169,42.7263904 17.4837976,42.6665349 17.3704482,42.6098602 C16.7285205,42.2839807 16.2508337,42.0434024 16.0805205,41.6547759 C16.3936771,40.7288964 16.583653,38.0177639 16.2184482,37.0516916 L16.1094361,36.9097157 C16.2479422,36.9033542 16.5457735,36.8189205 17.2036048,36.5008482 C17.3273639,37.0372337 17.7767133,37.4374265 18.3136771,37.4374265 C18.9480867,37.4374265 19.4627855,36.8854265 19.4627855,36.2061976 C19.4627855,35.5261012 18.9480867,34.9732337 18.3136771,34.9732337 C18.1034602,34.9732337 17.9085687,35.0385831 17.7388337,35.1452819 C17.8284723,35.0275952 17.9195566,34.918294 18.0005205,34.8214265 C18.210159,34.5707277 18.3243759,34.4336675 18.2824482,34.3252337 C18.2697253,34.2928482 18.2376289,34.2526554 18.1555084,34.2419566 L18.1199422,34.237041 L18.0965205,34.2624867 C18.0340627,34.3281253 17.9724723,34.3937639 17.9097253,34.4582458 C17.3750747,35.014294 16.8222072,35.5897157 16.8065928,36.2090892 C16.7340145,36.2787759 16.6059181,36.3276434 16.4827373,36.3756434 C16.3468337,36.4274024 16.2065928,36.4803181 16.1186892,36.5685108 C16.0597012,36.627788 16.0088096,36.6876434 15.9827855,36.7437398 L15.7945446,36.4979566 C15.6545928,36.1992578 15.6624,35.7316916 15.6704964,35.278294 C15.6811952,34.6499566 15.691894,34.0031133 15.3347855,33.5821012 L15.3758458,33.3649446 L15.1829783,33.2544867 C15.1803759,33.2527518 15.1410506,33.229041 15.0800386,33.1897157 C15.0676048,33.0789687 15.0467855,32.9609928 15.0115084,32.8658602 C14.9039422,32.5703422 14.6867855,32.4410892 14.475412,32.3158843 C14.3186892,32.2227759 14.1570506,32.1270651 14.0301108,31.9596434 C13.9595566,31.8674024 13.8968096,31.7913542 13.8401349,31.7216675 C13.7195566,31.5747759 13.6293398,31.4620048 13.5561831,31.3087518 C13.5350747,31.2089928 13.5191711,31.107788 13.517147,31.0034024 C13.7831711,31.2049446 14.0223036,31.3801735 14.3860627,31.5455711 L14.7423036,31.7074988 C15.2740627,32.3476916 15.9414361,32.7366072 15.954159,32.743547 L16.050159,32.7984867 L16.0570988,32.6886072 C16.0579663,32.6758843 16.079653,32.3696675 16.0383036,32.1739084 C15.9628337,31.8332819 15.7320867,31.6719325 15.5088578,31.5152096 C15.3553157,31.4067759 15.1957012,31.2948723 15.0704964,31.1196434 L14.9597494,30.9661012 C14.7908819,30.7327518 14.6662554,30.559547 14.5610024,30.343547 C14.5505928,30.2663422 14.5430747,30.1926072 14.5390265,30.1243663 L16.0510265,30.9710169 C16.7548337,31.2451373 17.8744482,31.0806072 18.5652434,30.8692337 L19.6154602,30.7506795 C19.930641,30.7136675 22.8462072,30.7937639 25.0484241,31.4868723 C27.6311711,32.2982458 30.7280386,35.3624386 32.5774843,37.1928 C33.032906,37.6430169 33.407653,38.0128482 33.7150265,38.282053 C34.6585446,38.882053 35.4424482,39.9958843 35.8654843,41.3346795 C36.0490988,41.9199325 36.2312675,42.9094265 36.4250024,43.9567518 L36.6039904,44.9167518 C36.7127133,45.4806072 36.8223036,46.0129446 36.9281349,46.5227277 C37.2450506,48.0584386 37.5183036,49.3836434 37.5778699,50.732559 C37.6446651,52.2864867 37.6894843,53.3132819 38.2808096,54.8958361 C38.8964241,56.5509687 41.1159904,61.9307277 43.6001349,61.5441253 C44.2174843,61.4501494 44.6786892,61.1361253 44.933147,60.6361735 C45.5447133,59.4350169 44.8411952,57.4482217 44.3840386,56.5654265 C43.8751229,55.5837398 43.2997012,54.5766072 42.8376289,53.7684145 C42.4215325,53.0391614 42.0615325,52.4088 41.9744964,52.1838361 C41.8961349,51.9831614 41.7553157,51.723788 41.5771952,51.3941494 C40.6050506,49.6028241 38.7975325,46.2694265 41.539894,43.2110169 C41.898159,42.8076434 43.6547855,41.5119325 45.695653,42.5002699 L45.6916048,42.5121253 L45.9674602,42.6324145 L45.9746892,42.6196916 L48.7401831,43.6710651 L49.2227855,44.5350651 L50.5372916,44.6487036 C50.7984,45.0911133 50.9551229,45.8064867 51.0187373,46.3769928 L50.226159,45.3854747 L49.3543518,45.7686072 Z M48.7080867,49.763306 C48.7118458,49.7488482 48.7147373,49.7341012 48.7187855,49.7193542 L48.7393157,49.7213783 L48.7080867,49.763306 Z M11.8877494,72.9961735 C12.1743036,72.6439807 12.6774361,72.0419566 13.0808096,71.6504386 L13.8606651,71.1973301 L13.9025928,71.1218602 C14.2050506,70.5739084 15.8064,69.166294 16.0805205,68.9855711 C16.2566169,68.8777157 17.2099663,68.8250892 17.8411952,68.7906795 C18.1092434,68.7759325 18.3796048,68.7603181 18.6320386,68.7426795 C19.5862554,68.6761735 21.1023036,68.6515952 21.1002795,68.6507277 C21.9674602,68.6877398 22.5067373,68.4989205 22.6993157,68.095547 L22.9852916,67.4527518 C23.1457735,67.0054265 23.0940145,66.4944867 23.0382072,65.9543422 C22.9942554,65.5226313 22.949147,65.0773301 23.000906,64.6213301 C23.131894,63.4869687 23.375653,61.3769928 23.9267855,61.0762699 C24.690159,60.6613301 25.9586892,60.539306 26.6387855,60.8151614 L27.0704964,60.989812 C27.211894,61.163306 27.3492434,61.3379566 27.4735807,61.5149205 C27.7020145,61.8387759 28.2037012,62.5819084 28.6744482,63.4681735 C28.4567133,63.5109687 27.9989783,63.6830169 27.5490506,64.3726554 C27.075412,65.0990169 26.5850024,65.8508241 26.5095325,67.0574747 C26.4852434,67.4449446 26.5332434,67.8118843 26.5763277,68.1368964 C26.6650988,68.8198843 26.6945928,69.1908723 26.3178217,69.4921735 C25.8597976,69.8585349 24.0745446,69.9267759 21.0141108,69.7009446 C20.8244241,69.6861976 20.6795566,69.6752096 20.5922313,69.6717398 C19.9228337,69.6381976 18.6947855,69.6772337 18.2228819,69.8319325 C17.8744482,69.9487518 17.7148337,70.0982458 17.5456771,70.2567036 C17.480906,70.3174265 17.4086169,70.3859566 17.3134843,70.4614265 C17.0925687,70.6375229 16.9396048,70.7745831 16.8554602,70.8520771 L15.7433639,71.0194988 L15.0890024,70.9396916 C14.979412,70.9396916 14.912906,70.9712096 14.8912193,71.0348241 C14.8536289,71.1429687 14.9932916,71.3167518 15.1448096,71.4653783 L13.5561831,73.3281253 C12.8966169,73.3064386 12.3778699,73.2341494 11.8877494,72.9961735 Z M15.1083759,57.8252819 C14.8180627,57.4806072 14.6613398,57.0989205 14.5274602,56.1536675 L14.4840867,56.0322217 C14.1642795,55.5163663 13.9407614,54.4652819 13.9407614,53.8435952 L13.9407614,53.6498602 L13.7678458,53.5636916 C13.4555566,53.4110169 13.0073639,53.0703904 13.0111229,52.8572819 C13.0238458,52.246294 13.098159,51.6465831 13.1776771,51.011306 C13.2803277,50.1799807 13.3850024,49.3203181 13.3540627,48.3837398 L14.7229301,48.5020048 C14.7512675,49.3385349 14.6445687,49.6438843 14.5320867,49.9671614 C14.4303036,50.2577639 14.3256289,50.5581976 14.3120386,51.2481253 C14.309147,51.371306 14.3363277,51.4586313 14.3970506,51.5132819 C14.4921831,51.6023422 14.639653,51.5878843 14.7984,51.5719807 C14.9490506,51.5575229 15.106641,51.5427759 15.2072675,51.6220048 C15.6117976,51.9371855 15.4461108,52.4784867 15.2867855,53.0009928 C15.1595566,53.4139084 15.0401349,53.804559 15.2064,54.0717398 L15.2309783,54.1128 L15.2731952,54.0902458 C15.3512675,54.0503422 15.4082313,54.0422458 15.4423518,54.0697157 C15.531412,54.1382458 15.5068337,54.4181494 15.4715566,54.579788 L15.4677976,54.5974265 L16.258641,56.0935229 C15.859894,56.7782458 15.3813398,57.4540048 15.1083759,57.8252819 Z M14.4479422,45.3094265 C14.8776289,45.2750169 16.1186892,45.2819566 16.7371952,45.6859084 C16.7371952,45.6859084 17.2140145,45.8975711 17.528906,45.995306 C18.2110265,46.2081253 18.6525687,46.3472096 19.3855807,46.2974747 L19.1721831,46.7187759 L19.1094361,46.8575711 L17.9918458,46.5874988 C17.9727614,46.5820048 17.9504964,46.5741976 17.9264964,46.5655229 C17.907412,46.5528 17.8871711,46.5392096 17.8683759,46.5267759 C17.0084241,45.9493301 17.0064,45.9533783 16.925147,45.9571373 L16.7840386,45.9181012 C16.3829783,45.8015711 15.5802795,45.5607036 14.8932434,45.5734265 C14.576906,45.5803663 14.2877494,45.5913542 14.0532434,45.602053 C14.1454843,45.4696193 14.2721349,45.3533783 14.4479422,45.3094265 Z M18.1699663,35.6981494 C17.9215807,35.6981494 17.7021108,35.8146795 17.5555084,35.9928 C17.6419663,35.6160289 17.947894,35.3349687 18.3136771,35.3349687 C18.747412,35.3349687 19.1007614,35.7256193 19.1007614,36.2061976 C19.1007614,36.4106313 19.0336771,36.5962699 18.9261108,36.7448964 C18.9518458,36.6662458 18.9697735,36.5841253 18.9697735,36.4968 C18.9697735,36.0564145 18.610641,35.6981494 18.1699663,35.6981494 Z M18.0184482,36.1417157 C18.2971952,36.1417157 18.5233157,36.3695711 18.5233157,36.6494747 C18.5233157,36.7605108 18.4865928,36.8620048 18.4264482,36.9455711 C18.4374361,36.9114506 18.4449542,36.8764627 18.4449542,36.8394506 C18.4449542,36.6231614 18.2463036,36.4470651 18.0025446,36.4470651 C17.8469783,36.4470651 17.7104964,36.5190651 17.6315566,36.6272096 C17.6011952,36.5667759 17.576906,36.5025831 17.5598458,36.434053 C17.6410988,36.2620048 17.8151711,36.1417157 18.0184482,36.1417157 Z M51.4464,47.9832578 L51.6950747,46.0872578 L51.6109301,46.0921735 C51.5366169,45.5647518 51.3622554,44.7143422 50.9678458,44.1689928 L50.8845687,44.0524627 L49.6064964,43.9420048 L49.1747855,43.1696675 L46.945388,42.3212819 L46.9601349,42.2154506 C46.4627855,42.0705831 46.1594602,41.9826795 45.9674602,41.9416193 L45.9686169,41.9395952 C43.7918458,40.8864867 41.7316048,42.061041 41.0749301,42.7949205 C38.0399422,46.1803663 40.0591229,49.9023904 41.0289542,51.6914024 C41.1905928,51.9889446 41.329388,52.246294 41.3930024,52.4088 C41.4968096,52.6780048 41.8325205,53.2652819 42.2963277,54.0775229 C42.7555084,54.8810892 43.3268819,55.8812819 43.8303036,56.8531373 C44.285147,57.7292819 44.8351229,59.4546795 44.3779663,60.3530892 C44.2137253,60.6760771 43.9277494,60.8640289 43.5058699,60.9276434 C41.8657735,61.174294 39.9955084,57.7136675 38.8640386,54.6783904 C38.3082795,53.1880771 38.2677976,52.2532337 38.2004241,50.7048 C38.1388337,49.307306 37.8609542,47.9586795 37.5388337,46.3975229 C37.4338699,45.8894747 37.3242795,45.3600289 37.2167133,44.7993542 L37.0377253,43.8431133 C36.8410988,42.7764145 36.6551711,41.7692819 36.4602795,41.1478843 C35.9935807,39.6700048 35.1145446,38.4338602 34.0897735,37.7858602 C33.8275084,37.5528 33.4614361,37.1899084 33.0161349,36.7495229 C31.1262072,34.8789687 27.9622554,31.7491373 25.2355084,30.891788 C22.7944482,30.1255229 19.7377735,30.0902458 19.5333398,30.1333301 L18.4411952,30.2614265 C17.7628337,30.4641253 16.795894,30.5913542 16.3161831,30.4083181 L14.002641,29.1074024 L13.9332434,29.5518361 C13.9291952,29.5784386 13.8658699,30.0081253 13.9633157,30.5601253 C13.9280386,30.5335229 13.891894,30.506053 13.8545928,30.4777157 C13.7374843,30.3895229 13.6111229,30.293812 13.4613398,30.1879807 L13.1042313,29.9367036 L12.9819181,30.3554024 C12.4886169,32.043788 14.1064482,33.2926554 14.6818699,33.6752096 L14.6555566,33.8111133 L14.8004241,33.9288 C15.0655807,34.1439325 15.056906,34.7155952 15.0470747,35.2684627 C15.0381108,35.7912578 15.0294361,36.332559 15.2659663,36.821812 L15.6496771,37.3142458 C15.939412,38.1843181 15.7349783,40.9029687 15.4628819,41.5284145 L15.4180627,41.6322217 L15.450159,41.741812 C15.658641,42.4415711 16.2898699,42.7616675 17.089388,43.1659084 C17.2559422,43.250053 17.432906,43.3402699 17.6179663,43.4388723 L17.8067855,43.539788 L18.5039422,42.9360289 C18.5212916,42.9360289 18.5380627,42.9368964 18.5536771,42.9368964 C19.0868819,42.9368964 19.445147,42.7489446 19.6909301,42.3357398 C19.5058699,43.0190169 19.2063036,44.4127518 19.4864964,45.0127518 L19.3592675,45.6752096 C18.7329542,45.7194506 18.3717976,45.6049446 17.7139663,45.4002217 C17.4430265,45.3160771 17.0425446,45.1391133 17.0338699,45.1391133 C16.1637976,44.5683181 14.473388,44.6808 14.3530988,44.6946795 C13.8557494,44.8141012 13.4711711,45.2024386 13.2910265,45.7527036 L9.6404241,45.7712096 L8.63531566,46.4923663 C8.24466506,46.5776675 7.43444819,46.8616193 6.8197012,47.7825831 C6.61411084,47.8814747 6.4617253,48.1211855 6.32264096,48.3383422 C6.28938795,48.3912578 6.25902651,48.4392578 6.22779759,48.4803181 L5.93979759,48.9001735 C5.93199036,48.9149205 5.13073735,50.4601735 4.62355663,51.1130892 C4.52668916,51.238294 4.50586988,51.3921253 4.56977349,51.5239807 C4.7077012,51.8099566 5.10731566,51.8284627 5.92447229,51.8394506 C6.09854458,51.842053 6.2677012,51.8440771 6.40852048,51.8521735 C7.37083373,51.9048 8.05295422,51.7668723 8.84379759,51.6101494 L9.29401446,51.5213783 L9.36341205,51.3880771 C9.41430361,51.2920771 9.81565301,50.4934265 9.67280964,49.8182458 C9.82346024,49.6528482 9.95965301,49.5374747 10.0819663,49.4336675 C10.3176289,49.2338602 10.5417253,49.0441735 10.7082795,48.6338602 C11.4811952,48.4343422 11.9932916,48.3678361 12.7370024,48.574294 C12.7488578,49.4004145 12.6519904,50.1794024 12.5588819,50.9349687 C12.4816771,51.5575229 12.4012916,52.2014747 12.3885687,52.8454265 C12.3770024,53.4101494 12.9934843,53.8427277 13.323412,54.0327036 C13.3586892,54.7284145 13.5787373,55.7129928 13.9193639,56.302294 C14.0995084,57.5364145 14.3412434,57.9640771 14.9186892,58.5296675 L15.1690988,58.7754506 L15.383653,58.4984386 C15.4562313,58.4056193 17.154159,56.2005108 17.491894,54.8724145 L17.5387373,54.6861976 L17.3930024,54.5601253 C17.1333398,54.3360289 16.5003759,53.5255229 16.3847133,53.3034506 C16.4092916,52.6780048 16.4309783,51.3909687 15.6117976,50.7256193 C15.5999422,50.3497157 15.5938699,49.9865349 15.5892434,49.6470651 C15.5872193,49.5079807 15.5851952,49.373812 15.5831711,49.2436916 C15.6704964,49.2867759 15.7633157,49.3327518 15.8601831,49.3798843 C16.343653,49.6167036 16.9456771,49.9101976 17.2559422,50.2253783 C17.2559422,50.2265349 18.176906,51.1119325 18.5860627,51.5239807 L18.7150265,51.6572819 L18.8951711,51.6023422 L18.8971952,51.6023422 C19.0313639,51.6023422 19.4090024,52.0300048 19.6810988,52.567547 L19.7450024,52.652559 C20.7830747,53.6342458 23.0263518,55.102294 23.4375325,55.3686072 C23.4970988,55.5114506 23.4904482,55.8451373 23.4852434,56.0946795 C23.4765687,56.5761253 23.4658699,57.1174265 23.8154602,57.3554024 C23.9455807,57.5618602 24.3457735,58.1919325 24.6540145,58.6091855 C24.9535807,59.0151614 25.3077976,59.3442217 25.6189301,59.6339566 C25.7785446,59.7814265 25.9283277,59.9205108 26.0587373,60.0575711 C25.2618217,59.9910651 24.3064482,60.1593542 23.6283759,60.5291855 C22.856906,60.9499084 22.607653,62.599547 22.3824,64.5499084 C22.3219663,65.0735711 22.3734361,65.5746795 22.4188337,66.0170892 C22.4685687,66.5051855 22.511653,66.9282217 22.4069783,67.2196916 L22.1337253,67.8344386 C22.0909301,67.9226313 21.7806651,68.0515952 21.1072193,68.0281735 C21.0916048,68.0281735 19.5599422,68.0536193 18.5880867,68.1201253 C18.337388,68.1389205 18.0710747,68.1536675 17.8067855,68.1681253 C16.7097253,68.2276916 16.0229783,68.2748241 15.7358458,68.4659566 C15.4727133,68.6408964 13.8647133,70.0141012 13.402641,70.7433542 L12.7089542,71.1542458 C12.0219181,71.810053 11.2036048,72.8524627 11.1691952,72.8964145 L10.9589783,73.1656193 L11.2466892,73.3503904 C11.9872193,73.8263422 12.7312193,73.9339084 13.6903518,73.9544386 L13.8381108,73.9584867 L13.9751711,73.7974265 C14.6150747,73.7647518 15.8162313,73.4102458 15.8749301,73.3926072 L15.8963277,73.3856675 L16.4162313,72.2816675 L17.1119422,72.2808 L18.1612916,72.0908241 L18.1679422,72.099788 L18.2061108,72.0812819 L18.191653,72.0358843 L18.2257735,72.0604627 C18.2347373,72.0477398 18.2922795,71.9852819 18.3538699,71.9184867 C18.5791229,71.6758843 18.9920386,71.228559 19.1643759,70.9388241 L22.9930988,70.8567036 C23.0185446,70.8587277 25.5856771,71.0299084 26.8903518,71.1033542 L26.9157976,71.1053783 L26.9325687,71.0857157 C26.9707373,71.0397398 27.0224964,70.9897157 27.0823518,70.9310169 C27.3827855,70.6383904 27.8859181,70.1491373 27.9376771,69.0607518 C27.9376771,69.0549687 27.8888096,68.4520771 27.9376771,68.0773301 C28.0776289,67.0164145 28.5032675,66.581812 29.3519422,65.7166554 C29.3802795,65.6877398 29.4132434,65.6533301 29.4427373,65.6238361 C29.5740145,65.931788 29.6862072,66.2755952 29.674641,66.3848964 C29.6613398,66.4300048 29.5751711,66.5699566 29.5054843,66.6827277 C29.2547855,67.0907277 28.8352193,67.7716916 28.7617735,68.5871133 L28.7499181,68.6810892 C28.7030747,69.0156434 28.5931952,69.7998361 29.0769542,70.3555952 C29.3976289,70.724559 29.9077012,70.9116434 30.5906892,70.9116434 C30.9590747,70.9116434 31.2193157,70.7225349 31.395412,70.4750169 C31.411894,70.5160771 31.4298217,70.5591614 31.4471711,70.6022458 C31.7250506,71.2933301 32.106159,72.2385831 32.1764241,72.622294 L32.2108337,72.718294 C32.2782072,72.8385831 32.4326169,72.9698602 33.9235084,74.0796434 C34.6478458,74.6189205 35.4687614,75.2304867 35.8082313,75.5213783 C36.3602313,75.8325108 36.4643277,76.4541976 36.1549301,77.5992578 L36.1557976,77.7782458 L36.1598458,77.786053 C35.8602795,79.0331855 34.1397976,82.543547 33.259894,82.9674506 L33.0141108,83.0261494 L33.0866892,83.2794506 C33.0846651,83.3413301 33.0563277,83.4529446 33.0279904,83.5752578 C32.9672675,83.8453301 32.9262072,84.0419566 32.9360386,84.1917398 L32.4837976,88.2847518 L32.8498699,88.2659566 C34.0819663,88.2043663 36.082641,86.6492819 36.6207614,85.5765108 L36.6167133,85.5747759 C36.7187855,85.3495229 36.7615807,84.7839325 36.5591711,83.2806072 C36.8075566,83.1678361 37.2060145,82.9752578 37.4604723,82.7754506 L37.6258699,82.6482217 C38.231653,82.183547 38.8053398,81.7431614 38.5664964,80.3711133 C38.9678458,79.1433542 39.5322795,78.4701976 40.1296771,77.7574265 C40.5827855,77.2172819 41.0515084,76.659788 41.4262554,75.8579566 C41.5809542,75.5288964 41.3059663,75.1758361 40.9254361,74.686294 C40.5463518,74.1990651 40.0267373,73.5305349 40.1802795,73.1381494 C40.1872193,73.1225349 40.9086651,71.5064386 41.6731952,70.7598361 C43.4318458,69.0381976 43.8164241,67.0328964 43.8164241,66.4057157 C43.8164241,66.2735711 43.8849542,65.9875952 43.9838458,65.6961253 C44.0257735,65.6932337 44.0708819,65.6822458 44.1188819,65.660559 C44.3184,65.5697639 44.4357976,65.3407518 44.5699663,64.7731373 C45.0112193,64.4313542 46.8444723,62.9514506 47.3739181,61.4923663 C48.2185446,59.1678361 47.0147855,56.758294 45.8685687,54.9143422 C45.8460145,54.8790651 43.4463036,51.0994988 42.7494361,49.8809928 C42.121388,48.7819084 42.1075084,46.6352096 42.1037494,46.6265349 C42.1060627,46.6141012 42.2694361,45.607547 42.9746892,45.2406072 C43.4208578,45.0089928 44.0110265,45.0645108 44.7362313,45.406294 C44.8744482,45.8015711 45.0141108,46.3457639 45.0086169,46.6707759 C44.8429301,46.7187759 44.6627855,46.8087036 44.5748819,46.9613783 C44.4907373,47.1071133 44.5025928,47.2794506 44.6052434,47.4202699 L44.6989301,47.5466313 L45.1257253,47.5466313 C45.0065928,48.2267277 45.0268337,48.8541976 45.6063036,49.467788 L45.9579181,49.8399325 L46.0241349,49.6499566 L46.1103036,49.9081735 C46.1103036,49.9084627 46.1204241,49.9926072 46.1363277,50.123306 L46.1201349,50.1441253 L46.1357494,50.1814265 C46.1360386,50.182294 46.1406651,50.1927036 46.1464482,50.2074506 C46.1915566,50.581041 46.2664482,51.2131373 46.3043277,51.565041 L46.315894,51.6688482 L47.3964723,52.8188241 L47.4462072,52.1074988 C47.4641349,51.8481253 47.5002795,51.5740048 47.5384482,51.3872096 L48.2940145,51.0474506 L48.3388337,50.9260048 C48.3486651,50.8996916 48.5163759,50.4503422 48.6473639,49.9905831 L49.3589783,49.8162217 C50.0867855,49.6389687 50.3678458,49.8425349 50.4149783,49.9795952 L50.8972916,50.7606072 L51.379894,49.8272096 C51.5042313,49.7213783 51.5530988,49.5539566 51.5001831,49.3836434 C51.4319422,49.1682217 51.1841349,48.9441253 50.9317012,48.8865831 L50.423653,48.3305349 C50.4991229,47.5154024 50.4117976,46.8460048 50.1602313,46.301812 L50.7926169,47.0926554 L51.4464,47.9832578 Z" id="Fill-30" fill="#FEFEFE"></path>
                </g>
            </g>
        </g>
    </g>
</svg>