<?xml version="1.0" encoding="utf-8"?>
<!-- Generator: Adobe Illustrator 22.1.0, SVG Export Plug-In . SVG Version: 6.00 Build 0)  -->
<svg version="1.1" id="Livello_1" xmlns="http://www.w3.org/2000/svg" xmlns:xlink="http://www.w3.org/1999/xlink" x="0px" y="0px"
	 viewBox="0 0 338 275" style="enable-background:new 0 0 338 275;" xml:space="preserve">
<style type="text/css">
  :root{
    --primary: #7f0019;
  }
	.st0{fill:#FEFEFE;}
	.st1{filter:url(#Adobe_OpacityMaskFilter);}
	.st2{fill:#FFFFFF;}
	.st3{mask:url(#mask-2_1_);fill:#FFFFFF;fill-opacity:5.000000e-02;}
	.st4{fill:var(--primary);}
	.st5{enable-background:new    ;}
	.st6{filter:url(#Adobe_OpacityMaskFilter_1_);}
	.st7{mask:url(#mask-4_1_);fill:#FFFFFF;fill-opacity:5.000000e-02;}
	.st8{fill:#151B1E;}
	.st9{filter:url(#Adobe_OpacityMaskFilter_2_);}
	.st10{mask:url(#mask-6_1_);fill:#B0BEC5;}
	.st11{filter:url(#Adobe_OpacityMaskFilter_3_);}
	.st12{mask:url(#mask-8_1_);fill:#FFFFFF;fill-opacity:5.000000e-02;}
	.st13{filter:url(#Adobe_OpacityMaskFilter_4_);}
	.st14{mask:url(#mask-10_1_);fill:#B0BEC5;}
	.st15{filter:url(#Adobe_OpacityMaskFilter_5_);}
	.st16{mask:url(#mask-12_1_);fill:#FFFFFF;fill-opacity:5.000000e-02;}
</style>
<desc>Created by Daniele Tabellini @Nasonero @TeamDigitale.</desc>
<g id="PITTOGRAMMA-ILLUSTRAZIONE-2018">
	<g id="PITTOGRAMMA-ILLUSTRAZIONE" transform="translate(-168.000000, -252.000000)">
		<g id="Group-23" transform="translate(168.000000, 252.000000)">
			<path id="Fill-1" class="st0" d="M104.2,93c-5.7,0-10.8-4-12-9.8c-1.3-6.6,3-12.9,9.7-14.2l128.6-24.8c6.6-1.2,13,3,14.3,9.6
				c1.3,6.6-3,12.9-9.7,14.2L106.5,92.8C105.8,92.9,105,93,104.2,93"/>
			<path id="Fill-3" class="st0" d="M295.4,181L295.4,181c-6.9,0-12.5-5.5-12.4-12.3l0.1-60.5c0-6.7,5.6-12.2,12.4-12.2h0
				c6.9,0,12.4,5.5,12.4,12.3l-0.1,60.5C307.9,175.5,302.3,181,295.4,181"/>
			<path id="Fill-5" class="st0" d="M232.8,243h-23.6c-6.7,0-12.2-5.4-12.2-12s5.5-12,12.2-12h23.6c6.7,0,12.2,5.4,12.2,12
				S239.5,243,232.8,243"/>
			<path id="Fill-7" class="st0" d="M108.7,193c-3.7,0-7.4-1.7-9.8-4.9l-27.5-36.6c-4.1-5.4-3-13.1,2.5-17.1c5.4-4,13.1-3,17.2,2.4
				l27.5,36.5c4.1,5.4,3,13.1-2.5,17.1C113.9,192.2,111.3,193,108.7,193"/>
			<g id="Group-20" transform="translate(252.000000, 188.000000)">
				<g id="Group-19">
					<g id="Group-14-Copy">
						<g id="Clip-13">
						</g>
						<defs>
							<filter id="Adobe_OpacityMaskFilter" filterUnits="userSpaceOnUse" x="0" y="0" width="86" height="87">
								<feColorMatrix  type="matrix" values="1 0 0 0 0  0 1 0 0 0  0 0 1 0 0  0 0 0 1 0"/>
							</filter>
						</defs>
						<mask maskUnits="userSpaceOnUse" x="0" y="0" width="86" height="87" id="mask-2_1_">
							<g class="st1">
								<polygon id="path-1_1_" class="st2" points="0,0 86,0 86,87 0,87 								"/>
							</g>
						</mask>
						<path id="Fill-12" class="st3" d="M43.4,87c-12.6,0-23-4.2-31.2-12.6S0,55.7,0,43.3c0-12.4,4.1-22.7,12.2-30.9S30.6,0,43.3,0
							c12.6,0,22.9,4.2,30.8,12.6C82,21.1,86,31.4,86,43.8c0,12.4-4,22.7-11.9,30.9C66.2,82.9,56,87,43.4,87"/>
					</g>
					<path id="Fill-15" class="st4" d="M20.8,66.7C14.9,60.6,12,52.9,12,43.8c0-9.1,2.9-16.7,8.8-22.8S34.1,12,43.2,12
						c9.1,0,16.5,3.1,22.2,9.3c5.7,6.2,8.6,13.9,8.6,22.9c0,9.1-2.9,16.7-8.6,22.7C59.8,73,52.4,76,43.3,76
						C34.2,76,26.7,72.9,20.8,66.7z"/>
					<g class="st5">
						<path class="st2" d="M39.2,51.3c0.2,0,0.4,0.1,0.6,0.2s0.2,0.4,0.2,0.6v1.7c0,0.2-0.1,0.4-0.2,0.6s-0.4,0.2-0.6,0.2H32
							c-0.2,0-0.4-0.1-0.6-0.2s-0.2-0.4-0.2-0.6v-1.7c0-0.2,0.1-0.4,0.2-0.6s0.4-0.2,0.6-0.2h1.4l6.9-19.7c0-0.2,0.1-0.3,0.3-0.4
							s0.3-0.2,0.5-0.2h3.8c0.2,0,0.3,0.1,0.5,0.2s0.3,0.2,0.3,0.4l6.9,19.7H54c0.2,0,0.4,0.1,0.6,0.2s0.2,0.4,0.2,0.6v1.7
							c0,0.2-0.1,0.4-0.2,0.6s-0.4,0.2-0.6,0.2h-7.2c-0.2,0-0.4-0.1-0.6-0.2S46,54.1,46,53.8v-1.7c0-0.2,0.1-0.4,0.2-0.6
							s0.4-0.2,0.6-0.2H48L46.6,47h-7.3l-1.4,4.3H39.2z M42.6,37l-2.2,6.5h5.2L43.4,37c-0.2-0.6-0.4-1.2-0.4-1.8
							C42.9,35.8,42.8,36.4,42.6,37z"/>
					</g>
				</g>
			</g>
			<g id="Group-21" transform="translate(104.000000, 188.000000)">
				<g id="Group-14-Copy-2">
					<g id="Clip-13_1_">
					</g>
					<defs>
						<filter id="Adobe_OpacityMaskFilter_1_" filterUnits="userSpaceOnUse" x="0" y="0" width="86" height="87">
							<feColorMatrix  type="matrix" values="1 0 0 0 0  0 1 0 0 0  0 0 1 0 0  0 0 0 1 0"/>
						</filter>
					</defs>
					<mask maskUnits="userSpaceOnUse" x="0" y="0" width="86" height="87" id="mask-4_1_">
						<g class="st6">
							<polygon id="path-3_1_" class="st2" points="0,0 86,0 86,87 0,87 							"/>
						</g>
					</mask>
					<path id="Fill-12_1_" class="st7" d="M12.2,74.4C4.1,66,0,55.7,0,43.3c0-12.4,4.1-22.7,12.2-30.9S30.6,0,43.3,0
						c12.6,0,22.9,4.2,30.8,12.6C82,21.1,86,31.4,86,43.8c0,12.4-4,22.7-11.9,30.9C66.2,82.9,56,87,43.4,87
						C30.8,87,20.4,82.8,12.2,74.4z"/>
				</g>
				<path id="Fill-17" class="st8" d="M20.8,66.7C14.9,60.6,12,52.9,12,43.8c0-9.1,2.9-16.7,8.8-22.8S34.1,12,43.2,12
					c9.1,0,16.5,3.1,22.2,9.3c5.7,6.2,8.6,13.9,8.6,22.9c0,9.1-2.9,16.7-8.6,22.7C59.8,73,52.4,76,43.3,76
					C34.2,76,26.7,72.9,20.8,66.7z"/>
				<g class="st5">
					<path class="st2" d="M53.5,33.1c0.7,0,1.3,0.2,1.8,0.7s0.7,1.1,0.7,1.8v18.6c0,0.7-0.2,1.3-0.7,1.8s-1.1,0.7-1.8,0.7H31.5
						c-0.7,0-1.3-0.2-1.8-0.7S29,54.9,29,54.2V35.6c0-0.7,0.2-1.3,0.7-1.8s1.1-0.7,1.8-0.7H53.5z M40.8,53.3V39.8h-8.4v13.5H40.8z
						 M52.6,53.3V39.8h-8.4v13.5H52.6z"/>
				</g>
			</g>
			<g id="Group-18" transform="translate(251.000000, 0.000000)">
				<g id="Group-14" transform="translate(12.000000, 12.000000)">
					<g id="Clip-13_2_">
					</g>
					<defs>
						<filter id="Adobe_OpacityMaskFilter_2_" filterUnits="userSpaceOnUse" x="0.1" y="0" width="62.3" height="63.4">
							<feColorMatrix  type="matrix" values="1 0 0 0 0  0 1 0 0 0  0 0 1 0 0  0 0 0 1 0"/>
						</filter>
					</defs>
					<mask maskUnits="userSpaceOnUse" x="0.1" y="0" width="62.3" height="63.4" id="mask-6_1_">
						<g class="st9">
							<polygon id="path-5_1_" class="st2" points="0.1,0 62.3,0 62.3,63.4 0.1,63.4 							"/>
						</g>
					</mask>
					<path id="Fill-12_2_" class="st10" d="M31.5,63.4c-9.2,0-16.7-3.1-22.6-9.2S0.1,40.6,0.1,31.5C0.1,22.5,3,15,8.9,9
						s13.4-9,22.5-9C40.5,0,48,3,53.7,9.2c5.7,6.2,8.6,13.7,8.6,22.7c0,9-2.9,16.5-8.6,22.5C48,60.4,40.6,63.4,31.5,63.4"/>
				</g>
				<g id="Group-14_1_">
					<g id="Clip-13_3_">
					</g>
					<defs>
						<filter id="Adobe_OpacityMaskFilter_3_" filterUnits="userSpaceOnUse" x="0" y="0" width="86" height="87">
							<feColorMatrix  type="matrix" values="1 0 0 0 0  0 1 0 0 0  0 0 1 0 0  0 0 0 1 0"/>
						</filter>
					</defs>
					<mask maskUnits="userSpaceOnUse" x="0" y="0" width="86" height="87" id="mask-8_1_">
						<g class="st11">
							<polygon id="path-7_1_" class="st2" points="0,0 86,0 86,87 0,87 							"/>
						</g>
					</mask>
					<path id="Fill-12_3_" class="st12" d="M12.2,74.4C4.1,66,0,55.7,0,43.3c0-12.4,4.1-22.7,12.2-30.9S30.6,0,43.3,0
						c12.6,0,22.9,4.2,30.8,12.6C82,21.1,86,31.4,86,43.8c0,12.4-4,22.7-11.9,30.9C66.2,82.9,56,87,43.4,87
						C30.8,87,20.4,82.8,12.2,74.4z"/>
				</g>
				<g class="st5">
					<path class="st8" d="M57.8,49.8c0.1,0.1,0.2,0.3,0.2,0.4v2.1c0,0.2-0.1,0.3-0.2,0.4S57.5,53,57.4,53H31.6
						c-0.2,0-0.3-0.1-0.4-0.2S31,52.5,31,52.4v-19c0-0.2,0.1-0.3,0.2-0.4s0.3-0.2,0.4-0.2h2.1c0.2,0,0.3,0.1,0.4,0.2
						s0.2,0.3,0.2,0.4v16.2h23C57.5,49.6,57.7,49.7,57.8,49.8z M41.1,43.5c0-0.2-0.1-0.3-0.2-0.4s-0.3-0.2-0.4-0.2h-2.1
						c-0.2,0-0.3,0.1-0.4,0.2s-0.2,0.3-0.2,0.4v3.8c0,0.2,0.1,0.3,0.2,0.4s0.3,0.2,0.4,0.2h2.1c0.2,0,0.3-0.1,0.4-0.2
						s0.2-0.3,0.2-0.4V43.5z M46.2,36.8c0-0.2-0.1-0.3-0.2-0.4s-0.3-0.2-0.4-0.2h-2.1c-0.2,0-0.3,0.1-0.4,0.2s-0.2,0.3-0.2,0.4v10.5
						c0,0.2,0.1,0.3,0.2,0.4s0.3,0.2,0.4,0.2h2.1c0.2,0,0.3-0.1,0.4-0.2s0.2-0.3,0.2-0.4V36.8z M51.2,40.1c0-0.2-0.1-0.3-0.2-0.4
						s-0.3-0.2-0.4-0.2h-2.1c-0.2,0-0.3,0.1-0.4,0.2s-0.2,0.3-0.2,0.4v7.2c0,0.2,0.1,0.3,0.2,0.4s0.3,0.2,0.4,0.2h2.1
						c0.2,0,0.3-0.1,0.4-0.2s0.2-0.3,0.2-0.4V40.1z M56.3,35.1c0-0.2-0.1-0.3-0.2-0.4s-0.3-0.2-0.4-0.2h-2.1c-0.2,0-0.3,0.1-0.4,0.2
						s-0.2,0.3-0.2,0.4v12.2c0,0.2,0.1,0.3,0.2,0.4s0.3,0.2,0.4,0.2h2.1c0.2,0,0.3-0.1,0.4-0.2s0.2-0.3,0.2-0.4V35.1z"/>
				</g>
			</g>
			<g id="Group-22" transform="translate(0.000000, 50.000000)">
				<g id="Group-11" transform="translate(12.000000, 11.000000)">
					<g id="Clip-10">
					</g>
					<defs>
						<filter id="Adobe_OpacityMaskFilter_4_" filterUnits="userSpaceOnUse" x="0" y="0" width="61.7" height="63.4">
							<feColorMatrix  type="matrix" values="1 0 0 0 0  0 1 0 0 0  0 0 1 0 0  0 0 0 1 0"/>
						</filter>
					</defs>
					<mask maskUnits="userSpaceOnUse" x="0" y="0" width="61.7" height="63.4" id="mask-10_1_">
						<g class="st13">
							<polygon id="path-9_1_" class="st2" points="0,0 61.7,0 61.7,63.4 0,63.4 							"/>
						</g>
					</mask>
					<path id="Fill-9" class="st14" d="M8.8,54.2C2.9,48.1,0,40.6,0,31.6C0,22.5,2.9,15,8.7,9S22,0,31.1,0c9.1,0,16.4,3,22.1,9.2
						c5.7,6.2,8.5,13.7,8.5,22.7c0,9-2.9,16.5-8.5,22.5c-5.6,6-13,9-22,9C22.1,63.4,14.6,60.4,8.8,54.2z"/>
				</g>
				<g id="Group-14_2_">
					<g id="Clip-13_4_">
					</g>
					<defs>
						<filter id="Adobe_OpacityMaskFilter_5_" filterUnits="userSpaceOnUse" x="0" y="0" width="86" height="87">
							<feColorMatrix  type="matrix" values="1 0 0 0 0  0 1 0 0 0  0 0 1 0 0  0 0 0 1 0"/>
						</filter>
					</defs>
					<mask maskUnits="userSpaceOnUse" x="0" y="0" width="86" height="87" id="mask-12_1_">
						<g class="st15">
							<polygon id="path-11_1_" class="st2" points="0,0 86,0 86,87 0,87 							"/>
						</g>
					</mask>
					<path id="Fill-12_4_" class="st16" d="M12.2,74.4C4.1,66,0,55.7,0,43.3c0-12.4,4.1-22.7,12.2-30.9S30.6,0,43.3,0
						c12.6,0,22.9,4.2,30.8,12.6C82,21.1,86,31.4,86,43.8c0,12.4-4,22.7-11.9,30.9C66.2,82.9,56,87,43.4,87
						C30.8,87,20.4,82.8,12.2,74.4z"/>
				</g>
				<g class="st5">
					<path class="st8" d="M53.5,31.1c0.7,0,1.3,0.2,1.8,0.7s0.7,1.1,0.7,1.8v18.6c0,0.7-0.2,1.3-0.7,1.8s-1.1,0.7-1.8,0.7H31.5
						c-0.7,0-1.3-0.2-1.8-0.7S29,52.9,29,52.2V33.6c0-0.7,0.2-1.3,0.7-1.8s1.1-0.7,1.8-0.7H53.5z M40.8,42.9v-5.1h-8.4v5.1H40.8z
						 M40.8,51.3v-5.1h-8.4v5.1H40.8z M52.6,42.9v-5.1h-8.4v5.1H52.6z M52.6,51.3v-5.1h-8.4v5.1H52.6z"/>
				</g>
			</g>
		</g>
	</g>
</g>
</svg>
